<svg width="712" height="712" viewBox="0 0 712 712" fill="none" xmlns="http://www.w3.org/2000/svg"><g filter="url(#a)"><path fill-rule="evenodd" clip-rule="evenodd" d="M469.64 6c7.644 0 13.84 6.196 13.84 13.84v200.68h200.68c7.644 0 13.84 6.196 13.84 13.84s-6.196 13.84-13.84 13.84H483.48v207.6h200.68c7.644 0 13.84 6.196 13.84 13.84s-6.196 13.84-13.84 13.84H483.48v200.68c0 7.644-6.196 13.84-13.84 13.84s-13.84-6.196-13.84-13.84V483.48H248.2v200.68c0 7.644-6.196 13.84-13.84 13.84s-13.84-6.196-13.84-13.84V483.48H19.84c-7.644 0-13.84-6.196-13.84-13.84s6.196-13.84 13.84-13.84h200.68V248.2H19.84C12.196 248.2 6 242.004 6 234.36s6.196-13.84 13.84-13.84h200.68V19.84c0-7.644 6.196-13.84 13.84-13.84s13.84 6.196 13.84 13.84v200.68h207.6V19.84c0-7.644 6.196-13.84 13.84-13.84ZM248.2 248.2v207.6h207.6V248.2H248.2Z" fill="#fff" fill-opacity=".2" style="mix-blend-mode:color-burn"/></g><defs><filter id="a" x="-4" y="-4" width="716" height="716" filterUnits="userSpaceOnUse" color-interpolation-filters="sRGB"><feFlood flood-opacity="0" result="BackgroundImageFix"/><feGaussianBlur in="BackgroundImage" stdDeviation="5"/><feComposite in2="SourceAlpha" operator="in" result="effect1_backgroundBlur_6_50"/><feColorMatrix in="SourceAlpha" values="0 0 0 0 0 0 0 0 0 0 0 0 0 0 0 0 0 0 127 0" result="hardAlpha"/><feOffset dx="4" dy="4"/><feGaussianBlur stdDeviation="5"/><feComposite in2="hardAlpha" operator="out"/><feColorMatrix values="0 0 0 0 0.364583 0 0 0 0 0.441895 0 0 0 0 0.625 0 0 0 0.5 0"/><feBlend mode="multiply" in2="effect1_backgroundBlur_6_50" result="effect2_dropShadow_6_50"/><feBlend in="SourceGraphic" in2="effect2_dropShadow_6_50" result="shape"/><feColorMatrix in="SourceAlpha" values="0 0 0 0 0 0 0 0 0 0 0 0 0 0 0 0 0 0 127 0" result="hardAlpha"/><feOffset dx="4" dy="4"/><feGaussianBlur stdDeviation="2"/><feComposite in2="hardAlpha" operator="arithmetic" k2="-1" k3="1"/><feColorMatrix values="0 0 0 0 1 0 0 0 0 0.883333 0 0 0 0 0.980952 0 0 0 1 0"/><feBlend mode="lighten" in2="shape" result="effect3_innerShadow_6_50"/></filter></defs></svg>