<svg width="105" height="105" viewBox="0 0 105 105" fill="none" xmlns="http://www.w3.org/2000/svg"><g filter="url(#a)"><path fill-rule="evenodd" clip-rule="evenodd" d="M87.012 87.012c5.317-5.317 5.317-13.939 0-19.256L67.756 48.5l19.256-19.256c5.317-5.317 5.317-13.939 0-19.256s-13.939-5.317-19.256 0L48.5 29.244 29.244 9.988c-5.317-5.317-13.938-5.317-19.256 0-5.317 5.317-5.317 13.939 0 19.256L29.244 48.5 9.988 67.756c-5.317 5.317-5.317 13.939 0 19.256s13.939 5.317 19.256 0L48.5 67.756l19.256 19.256c5.317 5.317 13.939 5.317 19.256 0Z" fill="#A9C1ED"/></g><defs><filter id="a" x="-4" y="-4" width="109" height="109" filterUnits="userSpaceOnUse" color-interpolation-filters="sRGB"><feFlood flood-opacity="0" result="BackgroundImageFix"/><feGaussianBlur in="BackgroundImage" stdDeviation="5"/><feComposite in2="SourceAlpha" operator="in" result="effect1_backgroundBlur_7_5"/><feColorMatrix in="SourceAlpha" values="0 0 0 0 0 0 0 0 0 0 0 0 0 0 0 0 0 0 127 0" result="hardAlpha"/><feOffset dx="4" dy="4"/><feGaussianBlur stdDeviation="5"/><feComposite in2="hardAlpha" operator="out"/><feColorMatrix values="0 0 0 0 0.364583 0 0 0 0 0.441895 0 0 0 0 0.625 0 0 0 0.5 0"/><feBlend mode="multiply" in2="effect1_backgroundBlur_7_5" result="effect2_dropShadow_7_5"/><feBlend in="SourceGraphic" in2="effect2_dropShadow_7_5" result="shape"/><feColorMatrix in="SourceAlpha" values="0 0 0 0 0 0 0 0 0 0 0 0 0 0 0 0 0 0 127 0" result="hardAlpha"/><feOffset dx="4" dy="4"/><feGaussianBlur stdDeviation="2"/><feComposite in2="hardAlpha" operator="arithmetic" k2="-1" k3="1"/><feColorMatrix values="0 0 0 0 1 0 0 0 0 0.883333 0 0 0 0 0.980952 0 0 0 1 0"/><feBlend mode="lighten" in2="shape" result="effect3_innerShadow_7_5"/></filter></defs></svg>