<svg width="519" height="517" viewBox="0 0 519 517" fill="none" xmlns="http://www.w3.org/2000/svg">
<g filter="url(#filter0_di_5_28)">
<path fill-rule="evenodd" clip-rule="evenodd" d="M335 0C340.523 0 345 4.47715 345 10V155H490C495.523 155 500 159.477 500 165C500 170.523 495.523 175 490 175H345L345 325H490C495.523 325 500 329.477 500 335C500 340.523 495.523 345 490 345H345V490C345 495.523 340.523 500 335 500C329.477 500 325 495.523 325 490V345H175V490C175 495.523 170.523 500 165 500C159.477 500 155 495.523 155 490V345H9.99999C4.47714 345 0 340.523 0 335C0 329.477 4.47715 325 10 325H155L155 175H9.99999C4.47714 175 0 170.523 0 165C0 159.477 4.47715 155 10 155H155V9.99999C155 4.47714 159.477 0 165 0C170.523 0 175 4.47715 175 10V155H325V9.99999C325 4.47714 329.477 0 335 0ZM175 175L175 325H325L325 175H175Z" fill="#AAC1ED" fill-opacity="0.5"/>
<path fill-rule="evenodd" clip-rule="evenodd" d="M335 0C340.523 0 345 4.47715 345 10V155H490C495.523 155 500 159.477 500 165C500 170.523 495.523 175 490 175H345L345 325H490C495.523 325 500 329.477 500 335C500 340.523 495.523 345 490 345H345V490C345 495.523 340.523 500 335 500C329.477 500 325 495.523 325 490V345H175V490C175 495.523 170.523 500 165 500C159.477 500 155 495.523 155 490V345H9.99999C4.47714 345 0 340.523 0 335C0 329.477 4.47715 325 10 325H155L155 175H9.99999C4.47714 175 0 170.523 0 165C0 159.477 4.47715 155 10 155H155V9.99999C155 4.47714 159.477 0 165 0C170.523 0 175 4.47715 175 10V155H325V9.99999C325 4.47714 329.477 0 335 0ZM175 175L175 325H325L325 175H175Z" fill="#F4C2EB" fill-opacity="0.5"/>
</g>
<defs>
<filter id="filter0_di_5_28" x="0" y="0" width="519" height="517" filterUnits="userSpaceOnUse" color-interpolation-filters="sRGB">
<feFlood flood-opacity="0" result="BackgroundImageFix"/>
<feColorMatrix in="SourceAlpha" type="matrix" values="0 0 0 0 0 0 0 0 0 0 0 0 0 0 0 0 0 0 127 0" result="hardAlpha"/>
<feOffset dx="14" dy="12"/>
<feGaussianBlur stdDeviation="2.5"/>
<feComposite in2="hardAlpha" operator="out"/>
<feColorMatrix type="matrix" values="0 0 0 0 0.364583 0 0 0 0 0.441895 0 0 0 0 0.625 0 0 0 0.5 0"/>
<feBlend mode="normal" in2="BackgroundImageFix" result="effect1_dropShadow_5_28"/>
<feBlend mode="normal" in="SourceGraphic" in2="effect1_dropShadow_5_28" result="shape"/>
<feColorMatrix in="SourceAlpha" type="matrix" values="0 0 0 0 0 0 0 0 0 0 0 0 0 0 0 0 0 0 127 0" result="hardAlpha"/>
<feOffset dx="10" dy="8"/>
<feGaussianBlur stdDeviation="3"/>
<feComposite in2="hardAlpha" operator="arithmetic" k2="-1" k3="1"/>
<feColorMatrix type="matrix" values="0 0 0 0 1 0 0 0 0 0.883333 0 0 0 0 0.980952 0 0 0 1 0"/>
<feBlend mode="normal" in2="shape" result="effect2_innerShadow_5_28"/>
</filter>
</defs>
</svg>
