<svg width="99" height="97" viewBox="0 0 99 97" fill="none" xmlns="http://www.w3.org/2000/svg">
<g filter="url(#filter0_di_7_5)">
<path fill-rule="evenodd" clip-rule="evenodd" d="M81.012 81.012C86.3294 75.6946 86.3294 67.0734 81.012 61.756L61.756 42.5L81.012 23.244C86.3293 17.9266 86.3293 9.30544 81.012 3.98805C75.6946 -1.32934 67.0734 -1.32934 61.756 3.98805L42.5 23.244L23.2441 3.98804C17.9267 -1.32935 9.30547 -1.32935 3.98808 3.98804C-1.32931 9.30543 -1.32931 17.9266 3.98808 23.244L23.244 42.5L3.98804 61.756C-1.32935 67.0734 -1.32935 75.6946 3.98804 81.012C9.30543 86.3293 17.9266 86.3293 23.244 81.012L42.5 61.756L61.756 81.012C67.0734 86.3293 75.6946 86.3293 81.012 81.012Z" fill="#A9C1ED"/>
</g>
<defs>
<filter id="filter0_di_7_5" x="0" y="0" width="99" height="97" filterUnits="userSpaceOnUse" color-interpolation-filters="sRGB">
<feFlood flood-opacity="0" result="BackgroundImageFix"/>
<feColorMatrix in="SourceAlpha" type="matrix" values="0 0 0 0 0 0 0 0 0 0 0 0 0 0 0 0 0 0 127 0" result="hardAlpha"/>
<feOffset dx="9" dy="7"/>
<feGaussianBlur stdDeviation="2.5"/>
<feComposite in2="hardAlpha" operator="out"/>
<feColorMatrix type="matrix" values="0 0 0 0 0.364583 0 0 0 0 0.441895 0 0 0 0 0.625 0 0 0 0.5 0"/>
<feBlend mode="normal" in2="BackgroundImageFix" result="effect1_dropShadow_7_5"/>
<feBlend mode="normal" in="SourceGraphic" in2="effect1_dropShadow_7_5" result="shape"/>
<feColorMatrix in="SourceAlpha" type="matrix" values="0 0 0 0 0 0 0 0 0 0 0 0 0 0 0 0 0 0 127 0" result="hardAlpha"/>
<feOffset dx="9" dy="4"/>
<feGaussianBlur stdDeviation="3.5"/>
<feComposite in2="hardAlpha" operator="arithmetic" k2="-1" k3="1"/>
<feColorMatrix type="matrix" values="0 0 0 0 1 0 0 0 0 0.883333 0 0 0 0 0.980952 0 0 0 1 0"/>
<feBlend mode="normal" in2="shape" result="effect2_innerShadow_7_5"/>
</filter>
</defs>
</svg>
